<?xml version="1.0" encoding="UTF-8"?>
<svg id="Capa_1" xmlns="http://www.w3.org/2000/svg" version="1.1" viewBox="0 0 50 50">
  <!-- Generator: Adobe Illustrator 29.8.2, SVG Export Plug-In . SVG Version: 2.1.1 Build 3)  -->
  <defs>
    <style>
      .st0 {
        fill: #421a00;
      }
    </style>
  </defs>
  <path class="st0" d="M40.01.01c.16,10.87,0,42.65.06,46.52,0,.56-.36,1.51-.76,2.02-.72,1.06-2.11,1.6-3.35,1.29-1.42-.29-2.44-1.62-2.64-3.02-.08-.59-.06-1.15-.07-2.04v-7.09c.02-1.22-.06-1.96.06-3,.12-.84.94-1.26,1.48-1.8.84-.72,1.14-2.02.66-3.01-.62-1.46-3.16-.99-3.46-2.66-.14-3.58,0-10.46-.05-13.55,0-1.12,0-1.96.13-3.15.41-5.28,4.11-9.65,7.95-10.52h-.01Z"/>
  <path class="st0" d="M20.29,12.1c.28-1.87.2-3.89.21-5.76V.09h-2.09v9.99c0,.48-.4.88-.88.88s-.88-.4-.88-.88V.09h-1.85v9.99c0,.48-.4.88-.88.88s-.88-.4-.88-.88V.09h-2.09v6.24c.02,1.87-.07,3.89.21,5.76.09.52.2,1.02.39,1.51.45,1.2,1,2.07,1.56,3.18.93,1.81,1.02,4.01.59,5.99-.22.96-.38,1.87-.68,2.81-.42,1.27-.54,2.59-.51,3.86v16.82c.01.62.06,1.13.34,1.75,1.25,2.67,4.56,2.64,5.78-.01.28-.62.34-1.13.34-1.75v-16.8c.04-1.27-.08-2.59-.51-3.86-.31-.94-.45-1.81-.67-2.76-.46-1.99-.36-4.21.58-6.04.88-1.62,1.71-2.71,1.94-4.69h-.01Z"/>
</svg>