<?xml version="1.0" encoding="UTF-8"?>
<svg id="Capa_1" xmlns="http://www.w3.org/2000/svg" version="1.1" viewBox="0 0 48 48">
  <!-- Generator: Adobe Illustrator 29.8.2, SVG Export Plug-In . SVG Version: 2.1.1 Build 3)  -->
  <defs>
    <style>
      .st0 {
        fill: #502819;
      }

      .st1 {
        fill: #e95a0c;
      }

      .st2 {
        fill: #fff;
      }
    </style>
  </defs>
  <rect class="st0" width="48" height="48" rx="7.76" ry="7.76"/>
  <g>
    <polygon class="st2" points="44.47 43.2 28.8 42.75 28.99 39.77 41.4 40.03 40.84 22.66 40.84 22.64 41.04 7 25.09 7.14 6.6 6.75 6.95 22.64 6.95 22.66 6.79 39.92 17.75 39.65 17.84 42.61 3.79 42.98 3.98 22.66 3.56 3.5 25.04 4.16 44.05 3.99 43.82 22.64 44.47 43.2"/>
    <g>
      <rect class="st1" x="21.48" y="38.89" width="3.98" height="3.98" transform="translate(-22.03 28.56) rotate(-45)"/>
      <path class="st2" d="M34.88,30.18c-4.3.69-8.51-2.35-8.88-6.76,3.64-3.03,5.23-7.85,5.33-12.46h-4.16c.79,5.86-1.87,10.23-7.38,12.32,0-4.12.09-8.23.47-12.32h-4.26c.62,7.77.67,15.61,0,23.38h4.26c-.64-6.15-.42-7.29-.42-7.29.99-.4,1.96-.85,2.9-1.36,1.96,5.1,6.81,8.24,12.16,8.74v-4.26Z"/>
    </g>
  </g>
</svg>